<?xml version="1.0" encoding="UTF-8"?>
<svg version="1.1" xmlns="http://www.w3.org/2000/svg" width="2500" height="2500">
<path d="M0 0 C0.66 0 1.32 0 2 0 C4.08010764 4.13470935 6.15709511 8.27096886 8.23168945 12.40844727 C8.93176298 13.80369207 9.63256303 15.19857268 10.33422852 16.59301758 C12.50162741 20.90113486 14.64997426 25.21820726 16.78347778 29.54321289 C17.62237768 31.23738537 18.46651117 32.92897298 19.31491089 34.6184082 C24.19310554 44.34760032 28.78249763 53.95076675 32.181427 64.30586243 C39.55975627 87.61281334 39.55975627 87.61281334 55.91369629 104.64074707 C69.96568281 110.3285973 85.88227398 110.68651695 100.85289001 111.33204651 C114.26604601 111.91723325 127.32053483 113.87142075 140.57272339 115.98413086 C146.39984536 116.90063181 152.23874451 117.73228843 158.078125 118.56640625 C160.01990462 118.84675538 161.96164186 119.12739831 163.90332031 119.40844727 C165.26887573 119.60566249 166.6344337 119.80286013 168 120 C163.83519337 124.96563921 159.50293369 129.64481223 154.9140625 134.21875 C154.25344818 134.88032104 153.59283386 135.54189209 152.91220093 136.22351074 C151.52342439 137.61296345 150.13340162 139.00117156 148.7421875 140.38818359 C146.63427071 142.49075281 144.531735 144.59859604 142.4296875 146.70703125 C141.0706329 148.0654248 139.711268 149.42350798 138.3515625 150.78125 C137.73358795 151.40124878 137.1156134 152.02124756 136.47891235 152.66003418 C133.41082553 155.71202055 130.29183874 158.65113392 127.01586914 161.47973633 C122.95484968 164.99188487 119.16525024 168.72358504 115.39453125 172.54296875 C114.70743576 173.23385086 114.02034027 173.92473297 113.31242371 174.6365509 C111.14330604 176.81775803 108.97749504 179.00220134 106.8125 181.1875 C103.94693318 184.07974393 101.07801175 186.96859975 98.20703125 189.85546875 C97.55797318 190.51282516 96.9089151 191.17018158 96.2401886 191.84745789 C95.62572372 192.46522598 95.01125885 193.08299408 94.37817383 193.71948242 C93.84492996 194.2579631 93.3116861 194.79644379 92.76228333 195.35124207 C91 197 91 197 88.29205322 198.87216187 C85.78402815 200.76547798 85.78402815 200.76547798 85.59629822 203.43333435 C85.71268143 204.38789017 85.82906464 205.34244598 85.94897461 206.32592773 C86.15573318 208.06518021 86.15573318 208.06518021 86.3666687 209.83956909 C86.57221098 211.22721559 86.78379474 212.61397485 87 214 C87.181873 215.18545347 87.181873 215.18545347 87.3674202 216.3948555 C88.43254073 223.20650712 89.6226225 229.99510754 90.81640625 236.78515625 C91.19674598 238.97648976 91.57645024 241.16793365 91.95555115 243.35948181 C92.9483392 249.0912588 93.94775837 254.82185662 94.94921875 260.55212402 C96.55680195 269.75380993 98.15678534 278.95680867 99.75184441 288.16067314 C100.3093797 291.36971308 100.87135265 294.57795384 101.43373108 297.78614807 C101.77442302 299.74550618 102.11496182 301.70489092 102.45532227 303.66430664 C102.61271378 304.55522507 102.77010529 305.44614349 102.93226624 306.36405945 C103.07386169 307.18377228 103.21545715 308.00348511 103.36134338 308.84803772 C103.48540841 309.55752595 103.60947344 310.26701418 103.73729801 310.99800205 C104 313 104 313 104 317 C98.45972436 315.42980916 93.79595317 312.8039771 88.8125 310 C78.74749928 304.42025175 68.55573481 299.11798725 58.3125 293.875 C55.27468208 292.31912267 52.23693831 290.76310061 49.19921875 289.20703125 C48.47530441 288.83632004 47.75139008 288.46560883 47.00553894 288.08366394 C42.27635956 285.65999487 37.55685614 283.21927813 32.85742188 280.73828125 C31.39557283 279.96834851 29.92953636 279.20630221 28.45898438 278.453125 C24.42527854 276.37145128 20.58597834 274.12366849 16.76171875 271.67578125 C15.85405762 271.12656006 14.94639648 270.57733887 14.01123047 270.01147461 C12.275664 268.95904996 10.56865604 267.85717307 8.90283203 266.69750977 C6.09738299 265.04289053 4.26149177 264.27051838 1 264 C-4.00180007 265.68606036 -8.36800269 268.12473171 -12.90628052 270.79205322 C-16.20312256 272.69412738 -19.60603852 274.37355421 -23.0078125 276.078125 C-24.34611101 276.76265506 -25.68350794 277.44895048 -27.02001953 278.13696289 C-28.0247934 278.65397263 -28.0247934 278.65397263 -29.04986572 279.181427 C-29.73466003 279.53405609 -30.41945435 279.88668518 -31.125 280.25 C-31.84121521 280.61850067 -32.55743042 280.98700134 -33.29534912 281.3666687 C-41.9628627 285.83003138 -50.58879435 290.35142667 -59.125 295.0625 C-67.56646445 299.71427173 -76.06758359 304.24516616 -84.61517334 308.69845581 C-86.03221459 309.43792876 -87.44780119 310.18019631 -88.86187744 310.92532349 C-90.83619723 311.96465001 -92.81565319 312.99343706 -94.796875 314.01953125 C-96.51922363 314.91828979 -96.51922363 314.91828979 -98.27636719 315.83520508 C-99.17516602 316.2195874 -100.07396484 316.60396973 -101 317 C-101.66 316.67 -102.32 316.34 -103 316 C-102.90115729 315.43162289 -102.80231459 314.86324577 -102.70047665 314.27764511 C-100.2963592 300.44986202 -97.90129614 286.62053636 -95.51631069 272.78944016 C-94.36273276 266.10087259 -93.20609237 259.41286166 -92.04223633 252.72607422 C-90.91957169 246.27589585 -89.80544864 239.82427649 -88.69658089 233.37171173 C-88.27160841 230.9071969 -87.84374981 228.44317798 -87.41299248 225.97966766 C-86.81127403 222.53555538 -86.21973735 219.08984058 -85.63061523 215.64355469 C-85.44935593 214.62000381 -85.26809662 213.59645294 -85.0813446 212.54188538 C-84.84360321 211.13268074 -84.84360321 211.13268074 -84.60105896 209.69500732 C-84.46002463 208.88014233 -84.31899031 208.06527733 -84.17368221 207.22571945 C-83.87031355 203.3380817 -84.55985958 201.5149228 -87.09790039 198.5456543 C-88.00531982 197.64758057 -88.91273926 196.74950684 -89.84765625 195.82421875 C-90.33777695 195.33597122 -90.82789764 194.84772369 -91.33287048 194.34468079 C-92.37263818 193.31162945 -93.4159945 192.28217932 -94.46264648 191.25610352 C-96.03938725 189.71016129 -97.60554625 188.15414653 -99.16992188 186.59570312 C-103.31972983 182.48338295 -107.46987166 178.43535206 -111.89233398 174.61645508 C-115.94131399 171.09951507 -119.73378393 167.37804468 -123.5 163.5625 C-124.17998047 162.87873291 -124.85996094 162.19496582 -125.56054688 161.49047852 C-128.43225143 158.60262227 -131.29788438 155.70876925 -134.1640625 152.81542969 C-136.27392787 150.68734275 -138.38689645 148.56237083 -140.5 146.4375 C-141.45036133 145.47469116 -141.45036133 145.47469116 -142.41992188 144.49243164 C-146.21934668 140.67257446 -150.13661013 137.05410848 -154.22375488 133.54328918 C-156.74915194 131.34909992 -159.12502709 129.04414751 -161.5 126.6875 C-162.3559375 125.84574219 -163.211875 125.00398438 -164.09375 124.13671875 C-166 122 -166 122 -166 120 C-151.89256525 117.90859301 -137.78439605 115.82220507 -123.67536736 113.74157715 C-117.12405728 112.77532016 -110.57299241 111.80746003 -104.02246094 110.8359375 C-97.70122847 109.898483 -91.37938762 108.96523792 -85.0571022 108.03491211 C-82.64475469 107.67917834 -80.23263051 107.3219266 -77.82073593 106.96313477 C-74.443406 106.46098995 -71.06532338 105.96424061 -67.68701172 105.46875 C-66.68935287 105.31913818 -65.69169403 105.16952637 -64.6638031 105.01538086 C-60.06674687 104.34659807 -55.66122155 103.81652048 -51 104 C-50.59750282 102.70653908 -50.59750282 102.70653908 -50.18687439 101.38694763 C-49.01075831 98.03070068 -47.60867637 94.98371319 -46.01000977 91.80883789 C-45.71527267 91.22067795 -45.42053558 90.63251801 -45.11686707 90.02653503 C-44.14538686 88.09003876 -43.16834007 86.15640613 -42.19140625 84.22265625 C-41.50275487 82.85164315 -40.81452548 81.48041801 -40.12669373 80.10899353 C-38.31114184 76.49117626 -36.49117142 72.87560216 -34.66986084 69.26068115 C-31.44278436 62.85473067 -28.2219853 56.44563052 -25.00390625 50.03515625 C-24.65617786 49.34304676 -24.30844948 48.65093727 -23.95018387 47.93785477 C-19.04462043 38.16887648 -14.22897439 28.36347549 -9.59535217 18.46168518 C-6.63454813 12.17120091 -3.3834534 6.07304238 0 0 Z " fill="#F2B350" transform="translate(1722,981)"/>
<path d="M0 0 C3 1 3 1 4.17578125 2.76806641 C4.73845703 3.92314697 4.73845703 3.92314697 5.3125 5.1015625 C5.74949219 5.98714844 6.18648437 6.87273438 6.63671875 7.78515625 C7.31154297 9.19087891 7.31154297 9.19087891 8 10.625 C8.41894531 11.47707031 8.83789062 12.32914063 9.26953125 13.20703125 C11.66007392 18.09145416 14.00081831 22.9989488 16.33154297 27.91210938 C23.71991583 43.4646647 31.38975044 58.86752501 39.125 74.25 C40.96811504 77.91569601 42.81063936 81.58168313 44.65011597 85.24920654 C45.78228742 87.50605176 46.9162639 89.76199262 48.05227661 92.01690674 C48.55725677 93.02356384 49.06223694 94.03022095 49.58251953 95.06738281 C50.02677277 95.95065247 50.471026 96.83392212 50.92874146 97.74395752 C52 100 52 100 53 103 C54.145755 103.16873123 55.29151001 103.33746246 56.47198486 103.51130676 C67.35574488 105.1141548 78.23946313 106.71728616 89.12314224 108.32068348 C94.71635175 109.14467316 100.3095751 109.96856861 105.90283203 110.79223633 C111.31697714 111.58953165 116.73108335 112.38709063 122.14516449 113.18482018 C124.19402479 113.48666145 126.24289827 113.78841324 128.29178619 114.09006691 C141.53100287 116.039327 154.76715095 118.0079576 168 120 C166.6647512 122.76587885 165.42812818 124.82092726 163.2421875 126.98828125 C162.69820313 127.53033203 162.15421875 128.07238281 161.59375 128.63085938 C161.0265625 129.18580078 160.459375 129.74074219 159.875 130.3125 C159.33101563 130.85583984 158.78703125 131.39917969 158.2265625 131.95898438 C155.31694129 134.83801377 152.3396337 137.59517647 149.23291016 140.26049805 C145.22414483 143.7556977 141.45278564 147.43405837 137.71875 151.21875 C137.06096558 151.88032104 136.40318115 152.54189209 135.72546387 153.22351074 C133.64782726 155.31322735 131.57349373 157.40617315 129.5 159.5 C126.7634185 162.263417 124.02337737 165.02333722 121.28125 167.78125 C120.66954956 168.40124878 120.05784912 169.02124756 119.4276123 169.66003418 C113.51649152 175.60401457 107.22064064 181.01114675 100.73828125 186.3203125 C98.9264902 187.91825711 97.11793709 189.51987984 95.3125 191.125 C94.36955078 191.87136719 93.42660156 192.61773438 92.45507812 193.38671875 C89.41735072 196.17186102 87.76658176 198.25771929 86 202 C85.87757086 205.28084279 86.44224462 208.36497584 87.0390625 211.58398438 C87.19088895 212.50582834 87.3427154 213.42767231 87.49914265 214.37745094 C87.97811586 217.25572828 88.48817388 220.12740659 89 223 C89.29074922 224.72697673 89.57925423 226.4543331 89.86528015 228.18209839 C90.58552918 232.49838787 91.33487117 236.80901291 92.09512901 241.11841965 C92.59034934 243.92743425 93.08086807 246.7372373 93.57026672 249.54727173 C94.95911951 257.51766916 96.35537566 265.48675948 97.75610352 273.45507812 C98.62041876 278.37376802 99.47899205 283.29343267 100.33408546 288.21373367 C100.65838479 290.07278933 100.98490798 291.93145855 101.31375694 293.78971481 C101.77143176 296.37631841 102.22181783 298.96409638 102.6706543 301.55224609 C102.87397621 302.68527916 102.87397621 302.68527916 103.08140564 303.84120178 C103.84479535 308.29654773 104.12638214 312.47916345 104 317 C103.07703125 316.53851562 102.1540625 316.07703125 101.203125 315.6015625 C100.5848584 315.29250977 99.9665918 314.98345703 99.32958984 314.66503906 C97.91298956 313.95657261 96.49665905 313.24756652 95.08056641 312.53808594 C91.1456504 310.56767316 87.20649468 308.60675571 83.2578125 306.6640625 C73.81072653 302.00211226 64.51549227 297.13579815 55.2956543 292.03979492 C44.68600938 286.21393432 33.89914793 280.73183534 23.11889648 275.23046875 C22.02636314 274.67188675 22.02636314 274.67188675 20.91175842 274.10202026 C19.49617819 273.37902501 18.07948594 272.65820224 16.66160583 271.93972778 C12.26135023 269.6973293 8.00710383 267.30365746 3.87036133 264.59741211 C1.02113751 263.68734153 -0.34914504 264.68977183 -3 266 C-4.69854126 266.8360376 -4.69854126 266.8360376 -6.43139648 267.68896484 C-7.74587855 268.3605153 -9.059039 269.03465692 -10.37109375 269.7109375 C-11.08063705 270.07478043 -11.79018036 270.43862335 -12.52122498 270.81349182 C-14.82807318 271.99791642 -17.13291643 273.18617569 -19.4375 274.375 C-20.23053528 274.78315948 -21.02357056 275.19131897 -21.84063721 275.61184692 C-30.91118242 280.28211491 -39.94977231 284.99357994 -48.875 289.9375 C-58.99637008 295.54224667 -69.27302668 300.83761108 -79.5625 306.125 C-80.39029968 306.55126678 -81.21809937 306.97753357 -82.07098389 307.41671753 C-84.44306057 308.6373296 -86.81687495 309.8544836 -89.19140625 311.0703125 C-90.26185432 311.62104683 -90.26185432 311.62104683 -91.35392761 312.1829071 C-94.84913581 313.96628805 -98.31986241 315.62011586 -102 317 C-101.40910731 310.22988163 -100.5088239 303.57851978 -99.32592773 296.88793945 C-99.15997101 295.93211975 -98.99401428 294.97630005 -98.82302856 293.99151611 C-98.46553742 291.93482934 -98.10646226 289.87841738 -97.74593925 287.8222599 C-97.17507854 284.56468988 -96.60910901 281.30630339 -96.04444885 278.0476532 C-94.43927958 268.78927276 -92.82550411 259.53239987 -91.20825195 250.27612305 C-90.2166109 244.59852432 -89.230682 238.9199569 -88.24815559 233.24077415 C-87.87362569 231.08307279 -87.49685098 228.92575979 -87.11776543 226.76885414 C-86.58807272 223.75476097 -86.0656089 220.73949489 -85.54467773 217.72387695 C-85.38728622 216.83903122 -85.22989471 215.95418549 -85.06773376 215.04252625 C-84.25979001 210.31697468 -83.68326225 205.81437975 -84 201 C-85.59733456 198.77245968 -85.59733456 198.77245968 -88.0234375 197.0390625 C-92.76239951 193.10133394 -97.14466993 188.96845296 -101.4765625 184.5859375 C-102.13670349 183.92209045 -102.79684448 183.25824341 -103.47698975 182.57427979 C-105.52872223 180.51021458 -107.57728324 178.4430487 -109.625 176.375 C-112.34334453 173.62980446 -115.06516866 170.88812568 -117.7890625 168.1484375 C-118.39448883 167.53471283 -118.99991516 166.92098816 -119.62368774 166.28866577 C-122.64110944 163.25428617 -125.71149973 160.34241679 -128.95068359 157.54492188 C-133.14986858 153.91603798 -137.08266448 150.06179986 -141 146.1328125 C-142.08172485 145.05252274 -142.08172485 145.05252274 -143.18530273 143.95040894 C-144.69230857 142.44407814 -146.19807434 140.93650577 -147.70263672 139.42773438 C-150.0180615 137.10689628 -152.33885033 134.79151671 -154.66015625 132.4765625 C-156.1279254 131.00813352 -157.59538485 129.5393949 -159.0625 128.0703125 C-159.75923828 127.37559845 -160.45597656 126.6808844 -161.17382812 125.96511841 C-161.80869141 125.32710297 -162.44355469 124.68908752 -163.09765625 124.03173828 C-163.94082397 123.18737717 -163.94082397 123.18737717 -164.80102539 122.32595825 C-166 121 -166 121 -166 120 C-165.43769841 119.91846208 -164.87539682 119.83692415 -164.29605579 119.75291538 C-150.60794851 117.76794349 -136.92005955 115.78147224 -123.23240376 113.79338932 C-116.61312766 112.83200947 -109.99378499 111.8710939 -103.37426758 110.91137695 C-96.98747725 109.98535002 -90.60087696 109.05802282 -84.21440697 108.12978935 C-81.77640713 107.77567555 -79.3383389 107.42203232 -76.9002018 107.06886482 C-73.48838063 106.57457623 -70.07680529 106.07862333 -66.6652832 105.58227539 C-65.14937592 105.36325058 -65.14937592 105.36325058 -63.60284424 105.13980103 C-62.67041397 105.0037999 -61.7379837 104.86779877 -60.77729797 104.72767639 C-59.97072911 104.61060868 -59.16416025 104.49354097 -58.33314991 104.37292576 C-57.56321044 104.24986026 -56.79327097 104.12679476 -56 104 C-55.11083295 103.86626008 -54.2216659 103.73252016 -53.30555439 103.59472752 C-50.78564812 103.20224975 -50.78564812 103.20224975 -49.33383179 100.75668335 C-48.84516632 99.76238312 -48.35650085 98.76808289 -47.85302734 97.74365234 C-47.28828705 96.61671967 -46.72354675 95.48978699 -46.14169312 94.32870483 C-45.53937483 93.08130867 -44.93746798 91.83371376 -44.3359375 90.5859375 C-43.69835837 89.29649365 -43.05921996 88.00781975 -42.41860962 86.71987915 C-40.72659216 83.30709871 -39.05671955 79.88392357 -37.39099121 76.45825195 C-35.73647121 73.06572062 -34.06052144 69.6838277 -32.38671875 66.30078125 C-26.00794531 53.38632665 -19.73788251 40.42080418 -13.54310608 27.41706848 C-10.53214212 21.09777789 -7.47056256 14.80985659 -4.3125 8.5625 C-3.88517578 7.71236328 -3.45785156 6.86222656 -3.01757812 5.98632812 C-2.01371467 3.98988057 -1.00721195 1.99476033 0 0 Z " fill="#F2B350" transform="translate(222,981)"/>
<path d="M0 0 C0.66 0 1.32 0 2 0 C5.46328581 6.90300676 8.9241721 13.80721126 12.3823061 20.71280003 C13.98953416 23.92212094 15.59747319 27.13108073 17.20727539 30.33911133 C29.33935917 54.5183229 29.33935917 54.5183229 34.32443237 65.02330017 C35.21310477 66.88628251 36.11425296 68.74336981 37.02835083 70.5940094 C39.44270102 75.51282928 41.54204021 80.39998635 43.38476562 85.56274414 C47.40055558 96.63987294 47.40055558 96.63987294 55.67388916 104.51904297 C63.62809593 107.38797937 71.94428433 107.85855385 80.3125 108.5 C82.96325926 108.7855506 85.61099896 109.08025027 88.25878906 109.39038086 C93.04295501 109.94088161 97.82826841 110.45467416 102.62134743 110.92130566 C111.5164207 111.7909977 120.34574212 112.95947125 129.18359375 114.28515625 C131.10338799 114.57312576 131.10338799 114.57312576 133.06196594 114.86691284 C135.56981093 115.24585085 138.07743102 115.62628064 140.58480835 116.00830078 C146.41181931 116.8893802 152.24490478 117.72760357 158.078125 118.56640625 C160.0198742 118.846966 161.96160795 119.12763269 163.90332031 119.40844727 C165.26887573 119.60566249 166.6344337 119.80286013 168 120 C166.38919586 123.43275116 164.75929268 125.30729469 161.8515625 127.7734375 C157.23413859 131.82674925 152.85453171 136.05664354 148.5234375 140.4140625 C147.86313538 141.07766785 147.20283325 141.74127319 146.52252197 142.42498779 C144.47136878 144.4897064 142.42275566 146.55691202 140.375 148.625 C137.65665547 151.37019554 134.93483134 154.11187432 132.2109375 156.8515625 C131.60551117 157.46528717 131.00008484 158.07901184 130.37631226 158.71133423 C126.71509098 162.39313156 122.92711474 165.85964383 118.99920654 169.25460815 C113.52320159 174.03539202 108.30960137 179.1044402 103.09692383 184.16845703 C101.65248591 185.56080046 100.19658529 186.9413456 98.72973633 188.31005859 C96.59120737 190.30856341 94.49464593 192.343905 92.40234375 194.390625 C91.74419174 194.98997864 91.08603973 195.58933228 90.40794373 196.20684814 C87.82873474 198.79612134 86.05156701 200.67174567 85.90547943 204.4346447 C86.06737637 205.75789599 86.06737637 205.75789599 86.23254395 207.10787964 C86.34817908 208.08132324 86.46381422 209.05476685 86.58295345 210.05770874 C87.20870239 214.47240932 87.8973927 218.86661153 88.67407227 223.25732422 C88.84002899 224.21650253 89.00598572 225.17568085 89.17697144 226.16392517 C89.5340605 228.2244876 89.89314339 230.28470534 90.25406075 232.34460068 C90.82536515 235.60582838 91.39114028 238.86797425 91.95555115 242.13040161 C93.15299874 249.04611791 94.35730986 255.96062939 95.5625 262.875 C96.96314863 270.91191629 98.36096209 278.94930616 99.75184441 286.98791885 C100.30904198 290.19973812 100.87128253 293.41064826 101.43373108 296.62155151 C101.7745058 298.58733966 102.11504879 300.553168 102.45532227 302.51904297 C102.61271378 303.40950821 102.77010529 304.29997345 102.93226624 305.21742249 C103.61471823 309.18877376 104.20488704 312.95193473 104 317 C99.55816824 315.33451521 95.40257926 313.23691693 91.19140625 311.0703125 C90.43728958 310.68418289 89.68317291 310.29805328 88.90620422 309.90022278 C86.45687724 308.64457015 84.00955037 307.38508298 81.5625 306.125 C80.30291473 305.4777446 80.30291473 305.4777446 79.0178833 304.81741333 C68.7514614 299.53969803 58.54228045 294.18460976 48.44384766 288.59082031 C39.52999525 283.68263568 30.484564 279.0313439 21.4375 274.375 C20.65735535 273.97256073 19.87721069 273.57012146 19.07342529 273.15548706 C16.84071044 272.00456329 14.60625818 270.85709554 12.37109375 269.7109375 C11.7012294 269.36566513 11.03136505 269.02039276 10.34120178 268.66465759 C8.56937505 267.75945616 6.78513715 266.87866089 5 266 C3.69482422 265.32130859 3.69482422 265.32130859 2.36328125 264.62890625 C-0.91521708 263.75644636 -2.23443959 264.62430648 -5.18359375 266.2265625 C-6.18100586 266.75717285 -7.17841797 267.2877832 -8.20605469 267.83447266 C-9.80562012 268.72078369 -9.80562012 268.72078369 -11.4375 269.625 C-12.55930664 270.22747559 -13.68111328 270.82995117 -14.83691406 271.45068359 C-18.23536347 273.28146737 -21.61944929 275.13640862 -25 277 C-27.57901808 278.41589525 -30.15837975 279.83116266 -32.73779297 281.24633789 C-34.43692662 282.17879734 -36.13514512 283.112926 -37.83251953 284.04858398 C-48.59447852 289.94221922 -59.5386025 295.48784343 -70.46777344 301.06298828 C-71.98507971 301.83745997 -73.50233287 302.61203572 -75.01953125 303.38671875 C-75.75742889 303.76322571 -76.49532654 304.13973267 -77.25558472 304.52764893 C-83.47113067 307.70832044 -89.6421974 310.97010524 -95.79316711 314.27384949 C-100.89425476 317 -100.89425476 317 -102 317 C-101.51565002 306.37294293 -99.568116 296.00481243 -97.71537399 285.54966927 C-97.13872575 282.29280503 -96.56944123 279.03472848 -96.00210571 275.77622986 C-94.38937726 266.52078806 -92.76401633 257.26758311 -91.1328125 248.01538086 C-90.13202315 242.33594667 -89.1400003 236.6550368 -88.15327835 230.97314262 C-87.7763463 228.81357223 -87.39595497 226.65460264 -87.01203537 224.4962635 C-86.47688256 221.48723899 -85.95281356 218.47647619 -85.43115234 215.46508789 C-85.27016556 214.5761937 -85.10917877 213.6872995 -84.9433136 212.77146912 C-83.64542066 205.77212787 -83.64542066 205.77212787 -86.16737366 199.34487915 C-86.65620529 198.86191376 -87.14503693 198.37894836 -87.64868164 197.88134766 C-88.20338638 197.32371735 -88.75809113 196.76608704 -89.3296051 196.19155884 C-89.93368698 195.60498505 -90.53776886 195.01841125 -91.16015625 194.4140625 C-91.78345322 193.79405365 -92.40675018 193.1740448 -93.04893494 192.5352478 C-95.04427895 190.55563329 -97.05333053 188.59057042 -99.0625 186.625 C-100.38823206 185.31076507 -101.7131113 183.99566928 -103.03710938 182.6796875 C-104.32736364 181.402876 -105.61835691 180.12681077 -106.91015625 178.8515625 C-107.50006851 178.26903717 -108.08998077 177.68651184 -108.69776917 177.08633423 C-111.71766801 174.13363916 -114.79191051 171.28453146 -117.98803711 168.52294922 C-121.92940955 165.10683419 -125.61936541 161.49281179 -129.28125 157.78125 C-129.93903442 157.11967896 -130.59681885 156.45810791 -131.27453613 155.77648926 C-134.05066558 152.98421856 -136.82071537 150.18594584 -139.59130859 147.38818359 C-141.6316708 145.32959102 -143.67514331 143.27412097 -145.71875 141.21875 C-146.33045044 140.59875122 -146.94215088 139.97875244 -147.5723877 139.33996582 C-151.31715257 135.574384 -155.18576445 132.01433951 -159.2130127 128.55212402 C-161.6144513 126.46630587 -163.85269129 124.3486189 -166 122 C-166 121.34 -166 120.68 -166 120 C-165.44377394 119.91846208 -164.88754787 119.83692415 -164.31446648 119.75291538 C-150.76800138 117.76707961 -137.22163278 115.78058669 -123.67536736 113.79338932 C-117.12444399 112.83240834 -110.57348891 111.87164463 -104.02246094 110.91137695 C-97.70059953 109.98469298 -91.37882198 109.05743897 -85.0571022 108.12978935 C-82.64501041 107.77594123 -80.23288846 107.42229865 -77.82073593 107.06886482 C-74.44274782 106.57387883 -71.06486761 106.07816274 -67.68701172 105.58227539 C-66.68935287 105.43625885 -65.69169403 105.29024231 -64.6638031 105.13980103 C-62.87036362 104.87622611 -61.07758229 104.60810736 -59.28570271 104.33412838 C-57.35577791 104.05200829 -55.41726872 103.82957259 -53.4780426 103.62075806 C-50.95456035 103.22916609 -50.95456035 103.22916609 -49.59803772 101.48091125 C-49.28990646 100.82245712 -48.98177521 100.16400299 -48.66430664 99.4855957 C-48.29769424 98.73152435 -47.93108185 97.977453 -47.55335999 97.20053101 C-47.17610275 96.36736359 -46.79884552 95.53419617 -46.41015625 94.67578125 C-45.99249496 93.80265289 -45.57483368 92.92952454 -45.14451599 92.02993774 C-43.76365413 89.13323577 -42.41376673 86.22310938 -41.0625 83.3125 C-39.61266016 80.25531397 -38.15480197 77.20202754 -36.69699097 74.14863586 C-35.68434224 72.02562453 -34.67439775 69.9013214 -33.66702271 67.77580261 C-28.11691534 56.07660523 -22.31535646 44.50647425 -16.5 32.9375 C-15.52973863 31.00250575 -14.55976083 29.06736927 -13.59008789 27.13208008 C-11.82682401 23.61335872 -10.06252717 20.09516026 -8.296875 16.57763672 C-5.52499209 11.05488301 -2.76090879 5.52824827 0 0 Z " fill="#F2B350" transform="translate(1222,981)"/>
<path d="M0 0 C0.66 0 1.32 0 2 0 C2.67482422 1.39508789 2.67482422 1.39508789 3.36328125 2.81835938 C14.34030058 25.49570975 25.4890291 48.08139781 36.8125 70.58789062 C52 100.8063959 52 100.8063959 52 104 C52.68252335 104.03593262 53.36504669 104.07186523 54.06825256 104.10888672 C65.15350315 104.81980715 76.07763932 106.49993692 87.05859375 108.125 C89.17792976 108.43542643 91.29732062 108.74547853 93.41676331 109.05517578 C98.96004565 109.86626412 104.50252486 110.68271779 110.04486084 111.50024414 C114.57294194 112.16725733 119.10156995 112.83051074 123.63023281 113.49356079 C132.99160738 114.86421607 142.35262807 116.23729985 151.71264648 117.6171875 C152.99615997 117.80580353 152.99615997 117.80580353 154.30560303 117.99822998 C158.54472825 118.62423345 162.77587523 119.27796655 167 120 C165.34800863 124.26732045 162.14991497 127.12026364 158.9609375 130.26953125 C158.36125153 130.868759 157.76156555 131.46798676 157.14370728 132.08537292 C155.87339709 133.35266537 154.6006607 134.61752983 153.32568359 135.88012695 C151.3976141 137.79009818 149.47750968 139.70779036 147.55859375 141.62695312 C146.31817589 142.86244877 145.07730427 144.09748903 143.8359375 145.33203125 C143.27103607 145.89581985 142.70613464 146.45960846 142.12411499 147.04048157 C139.17948387 149.95117306 136.17549509 152.74541353 133.04150391 155.4519043 C129.01147474 158.94295097 125.24422808 162.64423129 121.5 166.4375 C120.4800293 167.46315063 120.4800293 167.46315063 119.43945312 168.50952148 C117.29049074 170.67057055 115.14482721 172.83484726 113 175 C110.16966163 177.85716017 107.33587327 180.71083454 104.5 183.5625 C103.86642578 184.20437256 103.23285156 184.84624512 102.58007812 185.50756836 C98.82637207 189.28146092 94.96405798 192.83025878 90.87695312 196.24194336 C90.25755859 196.82210205 89.63816406 197.40226074 89 198 C88.23540466 198.67316254 87.47080933 199.34632507 86.68304443 200.03988647 C84.03897734 204.69023237 85.32506946 208.60818168 86.29003906 213.70947266 C86.4747728 214.78803024 86.65950653 215.86658783 86.84983826 216.97782898 C87.46629717 220.54417298 88.11586694 224.10364811 88.765625 227.6640625 C89.1994541 230.13800475 89.63112737 232.61232593 90.06072998 235.08700562 C91.08136668 240.93712248 92.12258718 246.7833304 93.17419314 252.62793767 C94.71690959 261.20898907 96.22080726 269.79684138 97.72869492 278.38406944 C98.81130917 284.545723 99.89876927 290.70639629 101.00054932 296.86465454 C101.20211136 297.99554001 101.4036734 299.12642548 101.61134338 300.2915802 C101.98872417 302.40745564 102.3680963 304.52297722 102.74980164 306.63807678 C102.9154512 307.56894608 103.08110077 308.49981537 103.25177002 309.45889282 C103.39707783 310.26818552 103.54238564 311.07747822 103.69209671 311.91129494 C104 314 104 314 104 317 C99.88339153 315.72755242 96.22664501 314.18801202 92.44921875 312.12109375 C90.83781006 311.24674683 90.83781006 311.24674683 89.19384766 310.35473633 C88.03675293 309.72204834 86.8796582 309.08936035 85.6875 308.4375 C83.17019004 307.07139219 80.65010621 305.71047627 78.12890625 304.3515625 C77.4722699 303.99751846 76.81563354 303.64347443 76.13909912 303.27870178 C68.52175764 299.18511961 60.82358842 295.25043128 53.125 291.3125 C42.81480864 286.03712098 32.55663387 280.69757022 22.46142578 275.0168457 C20.88949124 274.14116586 19.30515003 273.28741973 17.7097168 272.45532227 C15.6014002 271.32299726 13.60813569 270.13493475 11.58129883 268.87084961 C6.3911702 265.81722049 2.33937226 263.53224736 -3.75097656 264.75 C-7.76488147 266.345788 -11.38903042 268.5627982 -15.0625 270.8125 C-16.43155581 271.59179011 -17.80385181 272.36541317 -19.17919922 273.13354492 C-21.91117043 274.6700976 -24.62289209 276.23478568 -27.31982422 277.83203125 C-32.02199747 280.6154696 -36.81848188 283.21475209 -41.625 285.8125 C-42.4504834 286.26810303 -43.2759668 286.72370605 -44.12646484 287.19311523 C-54.95208866 293.15229312 -65.98837731 298.71541924 -76.99658203 304.32739258 C-78.53293962 305.11136937 -80.06923666 305.89546483 -81.60546875 306.6796875 C-82.70800995 307.24175148 -82.70800995 307.24175148 -83.83282471 307.81517029 C-88.9586154 310.43833273 -94.01510335 313.16815466 -99.0246582 316.00830078 C-101 317 -101 317 -103 317 C-100.09763282 298.77690913 -97.13711565 280.56675816 -93.93823242 262.39310837 C-93.4997277 259.90079611 -93.06305762 257.40816908 -92.62695312 254.91543579 C-90.2204857 241.16630008 -90.2204857 241.16630008 -89.07373047 234.73999023 C-88.32288648 230.53011793 -87.58465731 226.31820667 -86.85498047 222.10461617 C-86.57894999 220.52454218 -86.2982648 218.94527355 -86.01269531 217.36689568 C-85.62013709 215.19433601 -85.24374759 213.01955447 -84.87109375 210.84350586 C-84.54516235 208.99903114 -84.54516235 208.99903114 -84.21264648 207.11729431 C-83.93022546 202.97713913 -84.9272617 201.23884079 -87.56884766 198.18823242 C-88.17776855 197.58342041 -88.78668945 196.9786084 -89.4140625 196.35546875 C-90.43306641 195.33936523 -90.43306641 195.33936523 -91.47265625 194.30273438 C-92.18292969 193.60470703 -92.89320313 192.90667969 -93.625 192.1875 C-94.31207031 191.50107422 -94.99914063 190.81464844 -95.70703125 190.10742188 C-98.98191489 186.86018735 -102.30348019 183.72622593 -105.79443359 180.7121582 C-109.8733028 177.16022439 -113.70180909 173.41043832 -117.5 169.5625 C-118.17998047 168.87873291 -118.85996094 168.19496582 -119.56054688 167.49047852 C-122.43225143 164.60262227 -125.29788438 161.70876925 -128.1640625 158.81542969 C-130.27392787 156.68734275 -132.38689645 154.56237083 -134.5 152.4375 C-135.45036133 151.47469116 -135.45036133 151.47469116 -136.41992188 150.49243164 C-140.21690831 146.67502594 -144.13940609 143.0723437 -148.21459961 139.55386353 C-151.80338023 136.43048832 -155.1359375 133.04844763 -158.5 129.6875 C-159.59054688 128.61532227 -159.59054688 128.61532227 -160.703125 127.52148438 C-161.38890625 126.83763672 -162.0746875 126.15378906 -162.78125 125.44921875 C-163.40064453 124.83393311 -164.02003906 124.21864746 -164.65820312 123.5847168 C-166 122 -166 122 -166 120 C-151.89256525 117.90859301 -137.78439605 115.82220507 -123.67536736 113.74157715 C-117.12405728 112.77532016 -110.57299241 111.80746003 -104.02246094 110.8359375 C-97.70122847 109.898483 -91.37938762 108.96523792 -85.0571022 108.03491211 C-82.64475469 107.67917834 -80.23263051 107.3219266 -77.82073593 106.96313477 C-74.443406 106.46098995 -71.06532338 105.96424061 -67.68701172 105.46875 C-66.68935287 105.31913818 -65.69169403 105.16952637 -64.6638031 105.01538086 C-60.06674687 104.34659807 -55.66122155 103.81652048 -51 104 C-50.76079834 103.1948999 -50.52159668 102.3897998 -50.27514648 101.56030273 C-48.71072787 97.19233095 -46.69753346 93.16645362 -44.59765625 89.03515625 C-43.94750046 87.74319084 -43.94750046 87.74319084 -43.28421021 86.42512512 C-42.35912549 84.58733241 -41.43233996 82.75039501 -40.5039978 80.91424561 C-38.08482098 76.12833691 -35.67885353 71.33580499 -33.2734375 66.54296875 C-32.80421371 65.60845886 -32.33498993 64.67394897 -31.85154724 63.71112061 C-28.55425814 57.13363041 -25.32620289 50.52985669 -22.1875 43.875 C-17.71026323 34.3943848 -13.05912909 25.00461333 -8.375 15.625 C-8.01417328 14.900849 -7.65334656 14.176698 -7.28158569 13.43060303 C-6.26033863 11.38226168 -5.23619644 9.33539818 -4.2109375 7.2890625 C-3.90109421 6.66739197 -3.59125092 6.04572144 -3.27201843 5.4052124 C-1.11529365 1.11529365 -1.11529365 1.11529365 0 0 Z " fill="#F2B350" transform="translate(2222,981)"/>
<path d="M0 0 C3 1 3 1 4.1361084 2.79638672 C4.49531372 3.58287598 4.85451904 4.36936523 5.22460938 5.1796875 C5.64141968 6.07461914 6.05822998 6.96955078 6.4876709 7.89160156 C7.15893005 9.36838379 7.15893005 9.36838379 7.84375 10.875 C8.83108034 12.9932391 9.82076045 15.11038417 10.8125 17.2265625 C11.33263672 18.3393457 11.85277344 19.45212891 12.38867188 20.59863281 C15.03835448 26.1918719 17.81375868 31.72065977 20.59375 37.25 C21.15763428 38.37422363 21.72151855 39.49844727 22.30249023 40.65673828 C24.0331909 44.10540126 25.76621809 47.55288517 27.5 51 C35.52518265 66.95571277 43.45152354 82.94549935 51.09094238 99.09008789 C51.71426393 100.39967416 52.35137901 101.70275801 53 103 C54.83902947 103.54513051 54.83902947 103.54513051 57.10253906 103.81860352 C57.98888031 103.94989151 58.87522156 104.0811795 59.78842163 104.21644592 C60.77089874 104.35255783 61.75337585 104.48866974 62.765625 104.62890625 C63.79845612 104.77939926 64.83128723 104.92989227 65.89541626 105.08494568 C69.34579587 105.58580107 72.79784742 106.07402734 76.25 106.5625 C78.64873542 106.90856967 81.04733386 107.25558999 83.44580078 107.60351562 C87.90696358 108.24996378 92.36847043 108.89388886 96.83052254 109.53417015 C105.94506053 110.84263047 115.05518055 112.18012131 124.1640625 113.52734375 C125.21836205 113.6832558 125.21836205 113.6832558 126.29396057 113.84231758 C129.09339472 114.25637713 131.89280792 114.67057779 134.69218445 115.08502674 C141.97924202 116.16386143 149.26694454 117.23830564 156.5546875 118.3125 C158.78890079 118.64191998 161.02311314 118.97134629 163.25732422 119.30078125 C164.83821562 119.53385773 166.41910732 119.76693218 168 120 C166.5846017 122.9489364 165.22500776 125.02260872 162.875 127.3125 C162.06675781 128.11107422 162.06675781 128.11107422 161.2421875 128.92578125 C159.29931259 130.72310979 157.31999003 132.4516291 155.31494141 134.1784668 C151.28151218 137.70375172 147.47972975 141.40674873 143.71875 145.21875 C143.06096558 145.88032104 142.40318115 146.54189209 141.72546387 147.22351074 C139.64782726 149.31322735 137.57349373 151.40617315 135.5 153.5 C132.7634185 156.263417 130.02337737 159.02333722 127.28125 161.78125 C126.66954956 162.40124878 126.05784912 163.02124756 125.4276123 163.66003418 C121.12440388 167.98716391 116.62173066 172.01747903 112 176 C107.98829234 179.51251781 104.05326454 183.09473369 100.17822266 186.75756836 C98.97439793 187.87908447 97.75403897 188.98310644 96.51806641 190.0690918 C94.70367441 191.66876712 92.95673514 193.32217968 91.2109375 194.99609375 C90.3800209 195.69236122 90.3800209 195.69236122 89.53231812 196.4026947 C86.70002849 199.24567623 86.0006633 201.19073964 85.99734497 205.23925781 C86.40338891 208.73743124 86.92662541 212.16552444 87.56418991 215.62673378 C88.01301008 218.07084826 88.42073857 220.51908951 88.82022095 222.97172546 C89.57532945 227.56371151 90.36899833 232.14813697 91.17459488 236.73151016 C91.70784309 239.76663366 92.23599476 242.80260751 92.76290894 245.83883667 C94.06961895 253.36330955 95.38349725 260.88652491 96.69958496 268.40936279 C97.81858452 274.80573551 98.93367146 281.20276279 100.04296494 287.60082626 C100.56199984 290.58501883 101.08685718 293.56815026 101.61184692 296.55130005 C101.92920784 298.37936043 102.2462711 300.20747251 102.56298828 302.03564453 C102.78269287 303.27000999 102.78269287 303.27000999 103.00683594 304.52931213 C103.72986032 308.74245884 104.15810595 312.70513753 104 317 C94.19715046 312.51740368 84.55170976 307.85744683 75.125 302.625 C64.23543887 296.58212232 53.16450282 290.9190979 42.0718689 285.26159668 C31.38109433 279.80607956 20.75774905 274.2702803 10.29296875 268.38867188 C9.5040625 267.94845703 8.71515625 267.50824219 7.90234375 267.0546875 C7.23710693 266.67812012 6.57187012 266.30155273 5.88647461 265.91357422 C3.81478613 264.91030539 2.301541 264.23112159 0 264 C-2.61534695 264.97635882 -2.61534695 264.97635882 -5.35546875 266.5859375 C-6.43618652 267.17850342 -7.5169043 267.77106934 -8.63037109 268.3815918 C-9.49695343 268.8673317 -9.49695343 268.8673317 -10.38104248 269.36288452 C-13.50729374 271.11444926 -16.65560784 272.82569138 -19.80078125 274.54296875 C-20.46360107 274.90628799 -21.1264209 275.26960724 -21.80932617 275.64393616 C-28.72895177 279.42571353 -35.74002644 283.02281459 -42.76260376 286.60870361 C-55.47772947 293.10229199 -68.07037945 299.78020303 -80.57617188 306.66992188 C-84.62034694 308.88916701 -88.68091781 311.07681896 -92.75 313.25 C-93.81541016 313.82524414 -93.81541016 313.82524414 -94.90234375 314.41210938 C-99.76738391 317 -99.76738391 317 -102 317 C-101.44023668 309.83862322 -100.57689507 302.8146246 -99.32592773 295.74267578 C-99.15997101 294.78349747 -98.99401428 293.82431915 -98.82302856 292.83607483 C-98.4659395 290.7755124 -98.10685661 288.71529466 -97.74593925 286.65539932 C-97.17463485 283.39417162 -96.60885972 280.13202575 -96.04444885 276.86959839 C-94.84700126 269.95388209 -93.64269014 263.03937061 -92.4375 256.125 C-91.03685137 248.08808371 -89.63903791 240.05069384 -88.24815559 232.01208115 C-87.69095802 228.80026188 -87.12871747 225.58935174 -86.56626892 222.37844849 C-86.2254942 220.41266034 -85.88495121 218.446832 -85.54467773 216.48095703 C-85.38728622 215.59049179 -85.22989471 214.70002655 -85.06773376 213.78257751 C-83.41278252 206.70114887 -83.41278252 206.70114887 -85.27490234 200.11709595 C-85.87254395 199.5275412 -86.47018555 198.93798645 -87.0859375 198.33056641 C-87.76084229 197.65281158 -88.43574707 196.97505676 -89.13110352 196.27676392 C-89.87158936 195.55894745 -90.6120752 194.84113098 -91.375 194.1015625 C-92.51183228 192.97178482 -92.51183228 192.97178482 -93.67163086 191.81918335 C-96.10296823 189.40920906 -98.55135368 187.01737218 -101 184.625 C-102.61957779 183.021932 -104.23808029 181.41777686 -105.85546875 179.8125 C-114.27370388 171.43998535 -114.27370388 171.43998535 -123.05639648 163.45678711 C-127.0679186 159.98776788 -130.81076594 156.30027452 -134.53515625 152.52734375 C-135.21750839 151.84120499 -135.89986053 151.15506622 -136.60289001 150.44813538 C-138.75857082 148.28036696 -140.91095015 146.10936802 -143.0625 143.9375 C-145.90458147 141.06864553 -148.75008064 138.20324378 -151.59765625 135.33984375 C-152.23639175 134.69280991 -152.87512726 134.04577606 -153.53321838 133.37913513 C-157.1114176 129.7816956 -160.76897304 126.42543961 -164.72898865 123.24977112 C-165.14842239 122.83734665 -165.56785614 122.42492218 -166 122 C-166 121.34 -166 120.68 -166 120 C-165.43769841 119.91846208 -164.87539682 119.83692415 -164.29605579 119.75291538 C-150.60794851 117.76794349 -136.92005955 115.78147224 -123.23240376 113.79338932 C-116.61312766 112.83200947 -109.99378499 111.8710939 -103.37426758 110.91137695 C-96.98747725 109.98535002 -90.60087696 109.05802282 -84.21440697 108.12978935 C-81.77640713 107.77567555 -79.3383389 107.42203232 -76.9002018 107.06886482 C-73.48838063 106.57457623 -70.07680529 106.07862333 -66.6652832 105.58227539 C-65.14937592 105.36325058 -65.14937592 105.36325058 -63.60284424 105.13980103 C-62.67041397 105.0037999 -61.7379837 104.86779877 -60.77729797 104.72767639 C-59.97072911 104.61060868 -59.16416025 104.49354097 -58.33314991 104.37292576 C-57.56321044 104.24986026 -56.79327097 104.12679476 -56 104 C-55.12054812 103.88675101 -54.24109625 103.77350203 -53.33499432 103.65682125 C-50.60044944 103.1623124 -50.60044944 103.1623124 -48.86279297 99.76318359 C-48.1372975 98.31746644 -47.4317406 96.86163889 -46.7421875 95.3984375 C-46.35770447 94.61947113 -45.97322144 93.84050476 -45.5770874 93.03793335 C-44.32565618 90.49172134 -43.10036741 87.93384324 -41.875 85.375 C-41.01114636 83.60504011 -40.14574145 81.83583653 -39.27880859 80.06738281 C-36.82883944 75.0562004 -34.40910125 70.0309347 -32 65 C-31.46568359 63.88592773 -30.93136719 62.77185547 -30.38085938 61.62402344 C-28.72885669 58.17126527 -27.08119686 54.71659252 -25.44750977 51.25512695 C-17.27318414 34.02297688 -8.56006942 17.04265598 0 0 Z " fill="#F2B350" transform="translate(722,981)"/>
</svg>
